<svg width="720" height="97" viewBox="0 0 720 97" fill="none" xmlns="http://www.w3.org/2000/svg">
<path d="M41.7204 61C40.1816 61 38.7512 60.7182 37.4291 60.1547C36.1287 59.5912 35.0017 58.811 34.0481 57.814C33.1162 56.7954 32.4335 55.6142 32 54.2705L35.6736 52.6775C36.2588 54.0646 37.104 55.1591 38.2094 55.961C39.3147 56.7412 40.5609 57.1313 41.948 57.1313C42.7282 57.1313 43.4001 57.0121 43.9636 56.7737C44.5488 56.5137 44.9931 56.1669 45.2965 55.7334C45.6216 55.3 45.7841 54.7798 45.7841 54.173C45.7841 53.4577 45.5674 52.8726 45.1339 52.4174C44.7221 51.9406 44.0936 51.5722 43.2484 51.3121L38.5995 49.8166C36.7139 49.2315 35.2943 48.3537 34.3407 47.1834C33.3871 46.013 32.9103 44.6368 32.9103 43.0546C32.9103 41.6675 33.2462 40.443 33.9181 39.381C34.6116 38.319 35.5652 37.4954 36.7789 36.9103C38.0143 36.3034 39.4231 36 41.0052 36C42.4573 36 43.7902 36.2601 45.0039 36.7802C46.2176 37.2787 47.2579 37.9831 48.1248 38.8934C49.0134 39.782 49.6745 40.8331 50.1079 42.0468L46.4668 43.6723C45.99 42.4586 45.2748 41.5267 44.3212 40.8765C43.3676 40.2046 42.2622 39.8687 41.0052 39.8687C40.2683 39.8687 39.6181 39.9987 39.0546 40.2588C38.4911 40.4972 38.0468 40.844 37.7217 41.2991C37.4183 41.7326 37.2666 42.2527 37.2666 42.8596C37.2666 43.5314 37.4833 44.1274 37.9168 44.6476C38.3502 45.1461 39.0113 45.5362 39.8999 45.8179L44.3537 47.2159C46.2826 47.8444 47.7239 48.7113 48.6775 49.8166C49.6528 50.922 50.1404 52.2874 50.1404 53.9129C50.1404 55.3 49.7828 56.5245 49.0676 57.5865C48.3524 58.6485 47.3663 59.4829 46.1092 60.0897C44.8522 60.6966 43.3892 61 41.7204 61Z" fill="black"/>
<path d="M61.8264 60.8049C59.8325 60.8049 58.2829 60.2631 57.1775 59.1795C56.0939 58.0741 55.552 56.5245 55.552 54.5306V46.7282H52.4961V42.9246H52.8212C53.6882 42.9246 54.36 42.697 54.8368 42.2419C55.3136 41.7867 55.552 41.1257 55.552 40.2588V38.8934H59.8108V42.9246H63.8745V46.7282H59.8108V54.303C59.8108 54.8882 59.9083 55.3866 60.1034 55.7984C60.3201 56.2102 60.6452 56.5245 61.0787 56.7412C61.5338 56.958 62.1082 57.0663 62.8017 57.0663C62.9534 57.0663 63.1268 57.0555 63.3219 57.0338C63.5386 57.0121 63.7445 56.9905 63.9396 56.9688V60.6099C63.6361 60.6532 63.2894 60.6966 62.8992 60.7399C62.5091 60.7833 62.1515 60.8049 61.8264 60.8049Z" fill="black"/>
<path d="M72.4939 61C71.2586 61 70.1857 60.7941 69.2755 60.3823C68.3652 59.9705 67.6608 59.3853 67.1623 58.6268C66.6639 57.8466 66.4146 56.9471 66.4146 55.9285C66.4146 54.9532 66.6313 54.0863 67.0648 53.3277C67.4983 52.5475 68.1701 51.8973 69.0804 51.3771C69.9907 50.857 71.1394 50.4885 72.5265 50.2718L78.3132 49.329V52.58L73.3392 53.4252C72.4939 53.5769 71.8654 53.8479 71.4536 54.238C71.0418 54.6281 70.8359 55.1374 70.8359 55.7659C70.8359 56.3728 71.0635 56.8604 71.5187 57.2289C71.9955 57.5756 72.5806 57.749 73.2742 57.749C74.1628 57.749 74.943 57.5648 75.6149 57.1964C76.3084 56.8062 76.8394 56.2752 77.2079 55.6034C77.598 54.9315 77.793 54.1946 77.793 53.3927V48.8414C77.793 48.0828 77.4896 47.4543 76.8828 46.9558C76.2976 46.4356 75.5173 46.1756 74.5421 46.1756C73.6318 46.1756 72.819 46.4248 72.1038 46.9233C71.4103 47.4001 70.901 48.0394 70.5759 48.8414L67.0973 47.1508C67.4441 46.2189 67.9859 45.417 68.7228 44.7451C69.4814 44.0516 70.37 43.5098 71.3886 43.1196C72.4072 42.7295 73.5126 42.5345 74.7046 42.5345C76.1567 42.5345 77.4354 42.8054 78.5408 43.3472C79.6461 43.8674 80.5022 44.6042 81.109 45.5579C81.7375 46.4898 82.0518 47.5843 82.0518 48.8414V60.6099H78.0206V57.5865L78.9309 57.5215C78.4757 58.28 77.9339 58.9194 77.3054 59.4395C76.6769 59.938 75.9616 60.3281 75.1597 60.6099C74.3578 60.87 73.4692 61 72.4939 61Z" fill="black"/>
<path d="M85.988 60.6099V42.9246H89.9867V46.8583L89.6616 46.2731C90.0734 44.951 90.7128 44.0299 91.5797 43.5098C92.4683 42.9896 93.5303 42.7295 94.7657 42.7295H95.806V46.5006H94.278C93.0643 46.5006 92.089 46.8799 91.3521 47.6385C90.6152 48.3754 90.2468 49.4157 90.2468 50.7594V60.6099H85.988Z" fill="black"/>
<path d="M106.686 60.8049C104.692 60.8049 103.143 60.2631 102.037 59.1795C100.954 58.0741 100.412 56.5245 100.412 54.5306V46.7282H97.3558V42.9246H97.6809C98.5478 42.9246 99.2197 42.697 99.6965 42.2419C100.173 41.7867 100.412 41.1257 100.412 40.2588V38.8934H104.67V42.9246H108.734V46.7282H104.67V54.303C104.67 54.8882 104.768 55.3866 104.963 55.7984C105.18 56.2102 105.505 56.5245 105.938 56.7412C106.393 56.958 106.968 57.0663 107.661 57.0663C107.813 57.0663 107.986 57.0555 108.182 57.0338C108.398 57.0121 108.604 56.9905 108.799 56.9688V60.6099C108.496 60.6532 108.149 60.6966 107.759 60.7399C107.369 60.7833 107.011 60.8049 106.686 60.8049Z" fill="black"/>
<path d="M125.464 60.6099C124.098 60.6099 122.906 60.3065 121.888 59.6996C120.891 59.0928 120.121 58.2475 119.579 57.1638C119.059 56.0802 118.799 54.8123 118.799 53.3602V42.5345H123.058V53.0026C123.058 53.7395 123.199 54.3897 123.481 54.9532C123.784 55.495 124.207 55.9285 124.748 56.2536C125.312 56.557 125.941 56.7087 126.634 56.7087C127.328 56.7087 127.945 56.557 128.487 56.2536C129.029 55.9285 129.452 55.4842 129.755 54.9207C130.058 54.3572 130.21 53.6853 130.21 52.9051V42.5345H134.469V60.2198H130.438V56.7412L130.795 57.3589C130.384 58.4426 129.701 59.2553 128.747 59.7971C127.815 60.339 126.721 60.6099 125.464 60.6099Z" fill="#3B77D7"/>
<path d="M138.785 60.2198V36H147.823C149.47 36 150.922 36.3034 152.179 36.9103C153.458 37.4954 154.455 38.3624 155.17 39.5111C155.885 40.6381 156.243 42.0143 156.243 43.6398C156.243 45.2436 155.875 46.6199 155.138 47.7685C154.423 48.8955 153.436 49.7625 152.179 50.3693C150.922 50.9762 149.47 51.2796 147.823 51.2796H143.207V60.2198H138.785ZM143.207 47.3784H147.888C148.69 47.3784 149.384 47.2267 149.969 46.9233C150.554 46.5982 151.009 46.1539 151.334 45.5904C151.659 45.0269 151.822 44.3767 151.822 43.6398C151.822 42.8812 151.659 42.231 151.334 41.6892C151.009 41.1257 150.554 40.6922 149.969 40.3888C149.384 40.0637 148.69 39.9012 147.888 39.9012H143.207V47.3784Z" fill="#3B77D7"/>
</svg>
